<?xml version="1.0" encoding="UTF-8" standalone="no"?>
<!DOCTYPE svg PUBLIC "-//W3C//DTD SVG 1.1//EN" "http://www.w3.org/Graphics/SVG/1.1/DTD/svg11.dtd">
<!-- Generated by graphviz version 9.0.0 (20230911.1827)
 -->
<!-- Title: G Pages: 1 -->
<svg width="1158pt" height="259pt" viewBox="0.00 0.00 1158.00 258.50" xmlns="http://www.w3.org/2000/svg" xmlns:xlink="http://www.w3.org/1999/xlink">
<g id="graph0" class="graph" transform="scale(1 1) rotate(0) translate(4 254.5)">
<title>G</title>
<polygon fill="white" stroke="none" points="-4,4 -4,-254.5 1154,-254.5 1154,4 -4,4"/>
<g id="clust1" class="cluster">
<title>cluster_s_stage1</title>
<polygon fill="#000000" fill-opacity="0.125490" stroke="black" points="277,-165.25 277,-242.5 761,-242.5 761,-165.25 277,-165.25"/>
<text text-anchor="middle" x="519" y="-225.2" font-family="Times,serif" font-size="14.00">stage1</text>
</g>
<g id="clust2" class="cluster">
<title>cluster_s_stage2</title>
<polygon fill="#000000" fill-opacity="0.125490" stroke="black" points="1037,-165.25 1037,-242.5 1131,-242.5 1131,-165.25 1037,-165.25"/>
<text text-anchor="middle" x="1084" y="-225.2" font-family="Times,serif" font-size="14.00">stage2</text>
</g>
<g id="clust3" class="cluster">
<title>cluster_s_stage3</title>
<polygon fill="#000000" fill-opacity="0.125490" stroke="black" points="8,-8 8,-157.25 1142,-157.25 1142,-8 8,-8"/>
<text text-anchor="middle" x="575" y="-139.95" font-family="Times,serif" font-size="14.00">stage3</text>
</g>
<!-- 0 -->
<g id="node1" class="node">
<title>0</title>
<ellipse fill="#adef9b" stroke="black" cx="597" cy="-191.25" rx="156.43" ry="18"/>
<text text-anchor="middle" x="597" y="-186.57" font-family="Times,serif" font-size="14.00">completed_but_cache_invalid</text>
</g>
<!-- 1 -->
<g id="node2" class="node">
<title>1</title>
<ellipse fill="#e8ffc6" stroke="black" cx="354" cy="-191.25" rx="68.57" ry="18"/>
<text text-anchor="middle" x="354" y="-186.57" font-family="Times,serif" font-size="14.00">cache_valid</text>
</g>
<!-- 3 -->
<g id="node3" class="node">
<title>3</title>
<ellipse fill="#ff453a" stroke="black" cx="1084" cy="-191.25" rx="39.11" ry="18"/>
<text text-anchor="middle" x="1084" y="-186.57" font-family="Times,serif" font-size="14.00">failed</text>
</g>
<!-- 5 -->
<g id="node4" class="node">
<title>5</title>
<ellipse fill="#ffffff" stroke="black" cx="1084" cy="-106" rx="50.16" ry="18"/>
<text text-anchor="middle" x="1084" y="-101.33" font-family="Times,serif" font-size="14.00">skipped</text>
</g>
<!-- 3&#45;&gt;5 -->
<g id="edge1" class="edge">
<title>3-&gt;5</title>
<path fill="none" stroke="black" d="M1084,-173C1084,-162.17 1084,-147.95 1084,-135.48"/>
<polygon fill="black" stroke="black" points="1087.5,-135.74 1084,-125.74 1080.5,-135.74 1087.5,-135.74"/>
</g>
<!-- im1KvT9I0B0= -->
<g id="node5" class="node">
<title>im1KvT9I0B0=</title>
<ellipse fill="#adef9b" stroke="black" cx="884" cy="-106" rx="131.7" ry="18"/>
<text text-anchor="middle" x="884" y="-101.33" font-family="Times,serif" font-size="14.00">group_none_cache_valid</text>
</g>
<!-- fH12dCM2Y0U= -->
<g id="node6" class="node">
<title>fH12dCM2Y0U=</title>
<ellipse fill="#caffaf" stroke="black" cx="609" cy="-106" rx="125.39" ry="18"/>
<text text-anchor="middle" x="609" y="-101.33" font-family="Times,serif" font-size="14.00">group_any_cache_valid</text>
</g>
<!-- nhCFUN3sMgE= -->
<g id="node7" class="node">
<title>nhCFUN3sMgE=</title>
<ellipse fill="#e8ffc6" stroke="black" cx="346" cy="-106" rx="119.6" ry="18"/>
<text text-anchor="middle" x="346" y="-101.33" font-family="Times,serif" font-size="14.00">group_all_cache_valid</text>
</g>
<!-- PPHnORZukjM= -->
<g id="node8" class="node">
<title>PPHnORZukjM=</title>
<ellipse fill="#ff453a" stroke="black" cx="112" cy="-106" rx="95.93" ry="18"/>
<text text-anchor="middle" x="112" y="-101.33" font-family="Times,serif" font-size="14.00">group_any_failed</text>
</g>
<!-- +ahLj4K0v5I= -->
<g id="node9" class="node">
<title>+ahLj4K0v5I=</title>
<ellipse fill="#ffffff" stroke="black" cx="117" cy="-34" rx="101.19" ry="18"/>
<text text-anchor="middle" x="117" y="-29.32" font-family="Times,serif" font-size="14.00">group_all_skipped</text>
</g>
<!-- PPHnORZukjM=&#45;&gt;+ahLj4K0v5I= -->
<g id="edge2" class="edge">
<title>PPHnORZukjM=-&gt;+ahLj4K0v5I=</title>
<path fill="none" stroke="black" d="M113.24,-87.7C113.76,-80.41 114.38,-71.73 114.96,-63.54"/>
<polygon fill="black" stroke="black" points="118.45,-63.84 115.67,-53.61 111.47,-63.34 118.45,-63.84"/>
</g>
</g>
</svg>