<?xml version="1.0" encoding="UTF-8" standalone="no"?>
<!DOCTYPE svg PUBLIC "-//W3C//DTD SVG 1.1//EN" "http://www.w3.org/Graphics/SVG/1.1/DTD/svg11.dtd">
<!-- Generated by graphviz version 9.0.0 (20230911.1827)
 -->
<!-- Title: G Pages: 1 -->
<svg width="150pt" height="245pt" viewBox="0.00 0.00 150.00 245.25" xmlns="http://www.w3.org/2000/svg" xmlns:xlink="http://www.w3.org/1999/xlink">
<g id="graph0" class="graph" transform="scale(1 1) rotate(0) translate(4 241.25)">
<title>G</title>
<polygon fill="white" stroke="none" points="-4,4 -4,-241.25 146,-241.25 146,4 -4,4"/>
<g id="clust1" class="cluster">
<title>cluster_s_stage1</title>
<polygon fill="#000000" fill-opacity="0.125490" stroke="black" points="8,-8 8,-229.25 134,-229.25 134,-8 8,-8"/>
<text text-anchor="middle" x="71" y="-211.95" font-family="Times,serif" font-size="14.00">stage1</text>
</g>
<!-- 0 -->
<g id="node1" class="node">
<title>0</title>
<ellipse fill="#adef9b" stroke="black" cx="71" cy="-178" rx="54.89" ry="18"/>
<text text-anchor="middle" x="71" y="-173.32" font-family="Times,serif" font-size="14.00">any_task</text>
</g>
<!-- EoQtt0BXamM= -->
<g id="node2" class="node">
<title>EoQtt0BXamM=</title>
<ellipse fill="#ccccff" stroke="black" cx="71" cy="-106" rx="47" ry="18"/>
<text text-anchor="middle" x="71" y="-101.33" font-family="Times,serif" font-size="14.00">group1</text>
</g>
<!-- 0&#45;&gt;EoQtt0BXamM= -->
<g id="edge1" class="edge">
<title>0-&gt;EoQtt0BXamM=</title>
<path fill="none" stroke="black" d="M71,-159.7C71,-152.41 71,-143.73 71,-135.54"/>
<polygon fill="black" stroke="black" points="74.5,-135.62 71,-125.62 67.5,-135.62 74.5,-135.62"/>
</g>
<!-- 5 -->
<g id="node3" class="node">
<title>5</title>
<ellipse fill="#adef9b" stroke="black" cx="71" cy="-34" rx="54.89" ry="18"/>
<text text-anchor="middle" x="71" y="-29.32" font-family="Times,serif" font-size="14.00">any_task</text>
</g>
<!-- EoQtt0BXamM=&#45;&gt;5 -->
<g id="edge2" class="edge">
<title>EoQtt0BXamM=-&gt;5</title>
<path fill="none" stroke="black" d="M71,-87.7C71,-80.41 71,-71.73 71,-63.54"/>
<polygon fill="black" stroke="black" points="74.5,-63.62 71,-53.62 67.5,-63.62 74.5,-63.62"/>
</g>
</g>
</svg>