<?xml version="1.0" encoding="UTF-8" standalone="no"?>
<!DOCTYPE svg PUBLIC "-//W3C//DTD SVG 1.1//EN" "http://www.w3.org/Graphics/SVG/1.1/DTD/svg11.dtd">
<!-- Generated by graphviz version 9.0.0 (20230911.1827)
 -->
<!-- Title: G Pages: 1 -->
<svg width="394pt" height="259pt" viewBox="0.00 0.00 394.00 258.50" xmlns="http://www.w3.org/2000/svg" xmlns:xlink="http://www.w3.org/1999/xlink">
<g id="graph0" class="graph" transform="scale(1 1) rotate(0) translate(4 254.5)">
<title>G</title>
<polygon fill="white" stroke="none" points="-4,4 -4,-254.5 390,-254.5 390,4 -4,4"/>
<g id="clust1" class="cluster">
<title>cluster_s_stage1</title>
<polygon fill="#000000" fill-opacity="0.125490" stroke="black" points="8,-8 8,-242.5 378,-242.5 378,-8 8,-8"/>
<text text-anchor="middle" x="193" y="-225.2" font-family="Times,serif" font-size="14.00">stage1</text>
</g>
<g id="clust2" class="cluster">
<title>cluster_n_Wb6yquV3NOU=</title>
<polygon fill="#000000" fill-opacity="0.125490" stroke="black" points="16,-16 16,-165.25 250,-165.25 250,-16 16,-16"/>
<text text-anchor="middle" x="133" y="-147.95" font-family="Times,serif" font-size="14.00">group1</text>
</g>
<!-- 2 -->
<g id="node1" class="node">
<title>2</title>
<ellipse fill="#adef9b" stroke="black" cx="136" cy="-114" rx="102.77" ry="18"/>
<text text-anchor="middle" x="136" y="-109.33" font-family="Times,serif" font-size="14.00">task_within_group</text>
</g>
<!-- 3 -->
<g id="node2" class="node">
<title>3</title>
<ellipse fill="#adef9b" stroke="black" cx="133" cy="-42" rx="109.08" ry="18"/>
<text text-anchor="middle" x="133" y="-37.33" font-family="Times,serif" font-size="14.00">task_within_group2</text>
</g>
<!-- 2&#45;&gt;3 -->
<g id="edge2" class="edge">
<title>2-&gt;3</title>
<path fill="none" stroke="black" d="M135.26,-95.7C134.95,-88.41 134.57,-79.73 134.22,-71.54"/>
<polygon fill="black" stroke="black" points="137.72,-71.46 133.8,-61.62 130.73,-71.76 137.72,-71.46"/>
</g>
<!-- 5 -->
<g id="node4" class="node">
<title>5</title>
<ellipse fill="#adef9b" stroke="black" cx="315" cy="-42" rx="54.89" ry="18"/>
<text text-anchor="middle" x="315" y="-37.33" font-family="Times,serif" font-size="14.00">any_task</text>
</g>
<!-- 2&#45;&gt;5 -->
<g id="edge3" class="edge">
<title>2-&gt;5</title>
<path fill="none" stroke="black" d="M250,-68.42C256.94,-65.7 263.67,-63.07 270.01,-60.6"/>
<polygon fill="black" stroke="black" points="271.12,-63.92 279.16,-57.02 268.57,-57.4 271.12,-63.92"/>
</g>
<!-- 0 -->
<g id="node3" class="node">
<title>0</title>
<ellipse fill="#adef9b" stroke="black" cx="136" cy="-191.25" rx="54.89" ry="18"/>
<text text-anchor="middle" x="136" y="-186.57" font-family="Times,serif" font-size="14.00">any_task</text>
</g>
<!-- 0&#45;&gt;2 -->
<g id="edge1" class="edge">
<title>0-&gt;2</title>
<path fill="none" stroke="black" d="M136,-172.8C136,-172.65 136,-172.5 136,-172.35"/>
<polygon fill="black" stroke="black" points="139.5,-176.76 136,-166.76 132.5,-176.76 139.5,-176.76"/>
</g>
</g>
</svg>