<?xml version="1.0" encoding="UTF-8" standalone="no"?>
<!DOCTYPE svg PUBLIC "-//W3C//DTD SVG 1.1//EN" "http://www.w3.org/Graphics/SVG/1.1/DTD/svg11.dtd">
<!-- Generated by graphviz version 9.0.0 (20230911.1827)
 -->
<!-- Title: G Pages: 1 -->
<svg width="422pt" height="143pt" viewBox="0.00 0.00 422.00 142.50" xmlns="http://www.w3.org/2000/svg" xmlns:xlink="http://www.w3.org/1999/xlink">
<g id="graph0" class="graph" transform="scale(1 1) rotate(0) translate(4 138.5)">
<title>G</title>
<polygon fill="white" stroke="none" points="-4,4 -4,-138.5 418,-138.5 418,4 -4,4"/>
<g id="clust1" class="cluster">
<title>cluster_s_stage1</title>
<polygon fill="#000000" fill-opacity="0.125490" stroke="black" points="8,-16 8,-93.25 256,-93.25 256,-16 8,-16"/>
<text text-anchor="middle" x="132" y="-75.95" font-family="Times,serif" font-size="14.00">stage1</text>
</g>
<g id="clust2" class="cluster">
<title>cluster_n_x519AWP0zso=</title>
<polygon fill="#000000" fill-opacity="0.125490" stroke="black" points="264,-8 264,-126.5 406,-126.5 406,-8 264,-8"/>
<text text-anchor="middle" x="335" y="-109.2" font-family="Times,serif" font-size="14.00">Group 2</text>
</g>
<g id="clust3" class="cluster">
<title>cluster_s_stage2</title>
<polygon fill="#000000" fill-opacity="0.125490" stroke="black" points="272,-16 272,-93.25 398,-93.25 398,-16 272,-16"/>
<text text-anchor="middle" x="335" y="-75.95" font-family="Times,serif" font-size="14.00">stage2</text>
</g>
<!-- 0 -->
<g id="node1" class="node">
<title>0</title>
<ellipse fill="#adef9b" stroke="black" cx="193" cy="-42" rx="54.89" ry="18"/>
<text text-anchor="middle" x="193" y="-37.33" font-family="Times,serif" font-size="14.00">any_task</text>
</g>
<!-- gPJludGyOp0= -->
<g id="node2" class="node">
<title>gPJludGyOp0=</title>
<ellipse fill="#ccccff" stroke="black" cx="68" cy="-42" rx="51.73" ry="18"/>
<text text-anchor="middle" x="68" y="-37.33" font-family="Times,serif" font-size="14.00">Group 1</text>
</g>
<!-- 4 -->
<g id="node3" class="node">
<title>4</title>
<ellipse fill="#adef9b" stroke="black" cx="335" cy="-42" rx="54.89" ry="18"/>
<text text-anchor="middle" x="335" y="-37.33" font-family="Times,serif" font-size="14.00">any_task</text>
</g>
</g>
</svg>