<?xml version="1.0" encoding="UTF-8" standalone="no"?>
<!DOCTYPE svg PUBLIC "-//W3C//DTD SVG 1.1//EN" "http://www.w3.org/Graphics/SVG/1.1/DTD/svg11.dtd">
<!-- Generated by graphviz version 9.0.0 (20230911.1827)
 -->
<!-- Title: G Pages: 1 -->
<svg width="520pt" height="215pt" viewBox="0.00 0.00 520.00 214.50" xmlns="http://www.w3.org/2000/svg" xmlns:xlink="http://www.w3.org/1999/xlink">
<g id="graph0" class="graph" transform="scale(1 1) rotate(0) translate(4 210.5)">
<title>G</title>
<polygon fill="white" stroke="none" points="-4,4 -4,-210.5 516,-210.5 516,4 -4,4"/>
<g id="clust1" class="cluster">
<title>cluster_s_stage1</title>
<polygon fill="#000000" fill-opacity="0.125490" stroke="black" points="8,-8 8,-198.5 504,-198.5 504,-8 8,-8"/>
<text text-anchor="middle" x="256" y="-181.2" font-family="Times,serif" font-size="14.00">stage1</text>
</g>
<g id="clust2" class="cluster">
<title>cluster_n_pJH1RGfh/oo=</title>
<polygon fill="#000000" fill-opacity="0.125490" stroke="black" points="262,-16 262,-165.25 496,-165.25 496,-16 262,-16"/>
<text text-anchor="middle" x="379" y="-147.95" font-family="Times,serif" font-size="14.00">group1</text>
</g>
<!-- 1 -->
<g id="node1" class="node">
<title>1</title>
<ellipse fill="#adef9b" stroke="black" cx="379" cy="-114" rx="102.77" ry="18"/>
<text text-anchor="middle" x="379" y="-109.33" font-family="Times,serif" font-size="14.00">task_within_group</text>
</g>
<!-- 2 -->
<g id="node2" class="node">
<title>2</title>
<ellipse fill="#adef9b" stroke="black" cx="379" cy="-42" rx="109.08" ry="18"/>
<text text-anchor="middle" x="379" y="-37.33" font-family="Times,serif" font-size="14.00">task_within_group2</text>
</g>
<!-- 1&#45;&gt;2 -->
<g id="edge1" class="edge">
<title>1-&gt;2</title>
<path fill="none" stroke="black" d="M379,-95.7C379,-88.41 379,-79.73 379,-71.54"/>
<polygon fill="black" stroke="black" points="382.5,-71.62 379,-61.62 375.5,-71.62 382.5,-71.62"/>
</g>
<!-- 0 -->
<g id="node3" class="node">
<title>0</title>
<ellipse fill="#adef9b" stroke="black" cx="199" cy="-114" rx="54.89" ry="18"/>
<text text-anchor="middle" x="199" y="-109.33" font-family="Times,serif" font-size="14.00">any_task</text>
</g>
<!-- 3 -->
<g id="node4" class="node">
<title>3</title>
<ellipse fill="#adef9b" stroke="black" cx="71" cy="-114" rx="54.89" ry="18"/>
<text text-anchor="middle" x="71" y="-109.33" font-family="Times,serif" font-size="14.00">any_task</text>
</g>
</g>
</svg>