<?xml version="1.0" encoding="UTF-8" standalone="no"?>
<!DOCTYPE svg PUBLIC "-//W3C//DTD SVG 1.1//EN" "http://www.w3.org/Graphics/SVG/1.1/DTD/svg11.dtd">
<!-- Generated by graphviz version 9.0.0 (20230911.1827)
 -->
<!-- Title: G Pages: 1 -->
<svg width="360pt" height="461pt" viewBox="0.00 0.00 360.00 461.25" xmlns="http://www.w3.org/2000/svg" xmlns:xlink="http://www.w3.org/1999/xlink">
<g id="graph0" class="graph" transform="scale(1 1) rotate(0) translate(4 457.25)">
<title>G</title>
<polygon fill="white" stroke="none" points="-4,4 -4,-457.25 356,-457.25 356,4 -4,4"/>
<g id="clust1" class="cluster">
<title>cluster_s_stage1</title>
<polygon fill="#000000" fill-opacity="0.125490" stroke="black" points="8,-8 8,-445.25 344,-445.25 344,-8 8,-8"/>
<text text-anchor="middle" x="176" y="-427.95" font-family="Times,serif" font-size="14.00">stage1</text>
</g>
<!-- 0 -->
<g id="node1" class="node">
<title>0</title>
<ellipse fill="#adef9b" stroke="black" cx="176" cy="-394" rx="54.89" ry="18"/>
<text text-anchor="middle" x="176" y="-389.32" font-family="Times,serif" font-size="14.00">any_task</text>
</g>
<!-- 1 -->
<g id="node2" class="node">
<title>1</title>
<ellipse fill="#adef9b" stroke="black" cx="176" cy="-322" rx="160.11" ry="18"/>
<text text-anchor="middle" x="176" y="-317.32" font-family="Times,serif" font-size="14.00">Entry Barrier 'stage1.group1'</text>
</g>
<!-- 0&#45;&gt;1 -->
<g id="edge1" class="edge">
<title>0-&gt;1</title>
<path fill="none" stroke="black" d="M176,-375.7C176,-368.41 176,-359.73 176,-351.54"/>
<polygon fill="black" stroke="black" points="179.5,-351.62 176,-341.62 172.5,-351.62 179.5,-351.62"/>
</g>
<!-- 2 -->
<g id="node3" class="node">
<title>2</title>
<ellipse fill="#adef9b" stroke="black" cx="176" cy="-250" rx="102.77" ry="18"/>
<text text-anchor="middle" x="176" y="-245.32" font-family="Times,serif" font-size="14.00">task_within_group</text>
</g>
<!-- 1&#45;&gt;2 -->
<g id="edge2" class="edge">
<title>1-&gt;2</title>
<path fill="none" stroke="black" d="M176,-303.7C176,-296.41 176,-287.73 176,-279.54"/>
<polygon fill="black" stroke="black" points="179.5,-279.62 176,-269.62 172.5,-279.62 179.5,-279.62"/>
</g>
<!-- 3 -->
<g id="node4" class="node">
<title>3</title>
<ellipse fill="#adef9b" stroke="black" cx="176" cy="-178" rx="109.08" ry="18"/>
<text text-anchor="middle" x="176" y="-173.32" font-family="Times,serif" font-size="14.00">task_within_group2</text>
</g>
<!-- 2&#45;&gt;3 -->
<g id="edge3" class="edge">
<title>2-&gt;3</title>
<path fill="none" stroke="black" d="M176,-231.7C176,-224.41 176,-215.73 176,-207.54"/>
<polygon fill="black" stroke="black" points="179.5,-207.62 176,-197.62 172.5,-207.62 179.5,-207.62"/>
</g>
<!-- 4 -->
<g id="node5" class="node">
<title>4</title>
<ellipse fill="#adef9b" stroke="black" cx="176" cy="-106" rx="152.22" ry="18"/>
<text text-anchor="middle" x="176" y="-101.33" font-family="Times,serif" font-size="14.00">Exit Barrier 'stage1.group1'</text>
</g>
<!-- 3&#45;&gt;4 -->
<g id="edge4" class="edge">
<title>3-&gt;4</title>
<path fill="none" stroke="black" d="M176,-159.7C176,-152.41 176,-143.73 176,-135.54"/>
<polygon fill="black" stroke="black" points="179.5,-135.62 176,-125.62 172.5,-135.62 179.5,-135.62"/>
</g>
<!-- 5 -->
<g id="node6" class="node">
<title>5</title>
<ellipse fill="#adef9b" stroke="black" cx="176" cy="-34" rx="54.89" ry="18"/>
<text text-anchor="middle" x="176" y="-29.32" font-family="Times,serif" font-size="14.00">any_task</text>
</g>
<!-- 4&#45;&gt;5 -->
<g id="edge5" class="edge">
<title>4-&gt;5</title>
<path fill="none" stroke="black" d="M176,-87.7C176,-80.41 176,-71.73 176,-63.54"/>
<polygon fill="black" stroke="black" points="179.5,-63.62 176,-53.62 172.5,-63.62 179.5,-63.62"/>
</g>
</g>
</svg>