<?xml version="1.0" encoding="UTF-8" standalone="no"?>
<!DOCTYPE svg PUBLIC "-//W3C//DTD SVG 1.1//EN" "http://www.w3.org/Graphics/SVG/1.1/DTD/svg11.dtd">
<!-- Generated by graphviz version 9.0.0 (20230911.1827)
 -->
<!-- Title: G Pages: 1 -->
<svg width="408pt" height="215pt" viewBox="0.00 0.00 408.00 214.50" xmlns="http://www.w3.org/2000/svg" xmlns:xlink="http://www.w3.org/1999/xlink">
<g id="graph0" class="graph" transform="scale(1 1) rotate(0) translate(4 210.5)">
<title>G</title>
<polygon fill="white" stroke="none" points="-4,4 -4,-210.5 404,-210.5 404,4 -4,4"/>
<g id="clust1" class="cluster">
<title>cluster_n_/yomQjTIaWc=</title>
<polygon fill="#000000" fill-opacity="0.125490" stroke="black" points="8,-8 8,-198.5 258,-198.5 258,-8 8,-8"/>
<text text-anchor="middle" x="133" y="-181.2" font-family="Times,serif" font-size="14.00">group1</text>
</g>
<g id="clust2" class="cluster">
<title>cluster_s_stage1</title>
<polygon fill="#000000" fill-opacity="0.125490" stroke="black" points="16,-16 16,-165.25 250,-165.25 250,-16 16,-16"/>
<text text-anchor="middle" x="133" y="-147.95" font-family="Times,serif" font-size="14.00">stage1</text>
</g>
<g id="clust3" class="cluster">
<title>cluster_s_stage2</title>
<polygon fill="#000000" fill-opacity="0.125490" stroke="black" points="266,-88 266,-165.25 392,-165.25 392,-88 266,-88"/>
<text text-anchor="middle" x="329" y="-147.95" font-family="Times,serif" font-size="14.00">stage2</text>
</g>
<!-- 0 -->
<g id="node1" class="node">
<title>0</title>
<ellipse fill="#adef9b" stroke="black" cx="133" cy="-114" rx="102.77" ry="18"/>
<text text-anchor="middle" x="133" y="-109.33" font-family="Times,serif" font-size="14.00">task_within_group</text>
</g>
<!-- 1 -->
<g id="node2" class="node">
<title>1</title>
<ellipse fill="#adef9b" stroke="black" cx="133" cy="-42" rx="109.08" ry="18"/>
<text text-anchor="middle" x="133" y="-37.33" font-family="Times,serif" font-size="14.00">task_within_group2</text>
</g>
<!-- 0&#45;&gt;1 -->
<g id="edge1" class="edge">
<title>0-&gt;1</title>
<path fill="none" stroke="black" d="M133,-95.7C133,-88.41 133,-79.73 133,-71.54"/>
<polygon fill="black" stroke="black" points="136.5,-71.62 133,-61.62 129.5,-71.62 136.5,-71.62"/>
</g>
<!-- 3 -->
<g id="node3" class="node">
<title>3</title>
<ellipse fill="#adef9b" stroke="black" cx="329" cy="-114" rx="54.89" ry="18"/>
<text text-anchor="middle" x="329" y="-109.33" font-family="Times,serif" font-size="14.00">any_task</text>
</g>
</g>
</svg>