<?xml version="1.0" encoding="UTF-8" standalone="no"?>
<!DOCTYPE svg PUBLIC "-//W3C//DTD SVG 1.1//EN" "http://www.w3.org/Graphics/SVG/1.1/DTD/svg11.dtd">
<!-- Generated by graphviz version 9.0.0 (20230911.1827)
 -->
<!-- Title: G Pages: 1 -->
<svg width="224pt" height="259pt" viewBox="0.00 0.00 224.00 258.50" xmlns="http://www.w3.org/2000/svg" xmlns:xlink="http://www.w3.org/1999/xlink">
<g id="graph0" class="graph" transform="scale(1 1) rotate(0) translate(4 254.5)">
<title>G</title>
<polygon fill="white" stroke="none" points="-4,4 -4,-254.5 220,-254.5 220,4 -4,4"/>
<g id="clust1" class="cluster">
<title>cluster_s_inputs</title>
<polygon fill="#000000" fill-opacity="0.125490" stroke="black" points="27,-165.25 27,-242.5 189,-242.5 189,-165.25 27,-165.25"/>
<text text-anchor="middle" x="108" y="-225.2" font-family="Times,serif" font-size="14.00">inputs</text>
</g>
<g id="clust2" class="cluster">
<title>cluster_s_features</title>
<polygon fill="#000000" fill-opacity="0.125490" stroke="black" points="8,-8 8,-157.25 208,-157.25 208,-8 8,-8"/>
<text text-anchor="middle" x="108" y="-139.95" font-family="Times,serif" font-size="14.00">features</text>
</g>
<!-- 0 -->
<g id="node1" class="node">
<title>0</title>
<ellipse fill="#adef9b" stroke="black" cx="108" cy="-191.25" rx="72.78" ry="18"/>
<text text-anchor="middle" x="108" y="-186.57" font-family="Times,serif" font-size="14.00">input_tables</text>
</g>
<!-- 2 -->
<g id="node2" class="node">
<title>2</title>
<ellipse fill="#adef9b" stroke="black" cx="108" cy="-106" rx="64.89" ry="18"/>
<text text-anchor="middle" x="108" y="-101.33" font-family="Times,serif" font-size="14.00">join_tables</text>
</g>
<!-- 0&#45;&gt;2 -->
<g id="edge1" class="edge">
<title>0-&gt;2</title>
<path fill="none" stroke="black" d="M108,-173C108,-162.17 108,-147.95 108,-135.48"/>
<polygon fill="black" stroke="black" points="111.5,-135.74 108,-125.74 104.5,-135.74 111.5,-135.74"/>
</g>
<!-- 3 -->
<g id="node3" class="node">
<title>3</title>
<ellipse fill="#adef9b" stroke="black" cx="108" cy="-34" rx="92.24" ry="18"/>
<text text-anchor="middle" x="108" y="-29.32" font-family="Times,serif" font-size="14.00">print_dataframe</text>
</g>
<!-- 2&#45;&gt;3 -->
<g id="edge2" class="edge">
<title>2-&gt;3</title>
<path fill="none" stroke="black" d="M108,-87.7C108,-80.41 108,-71.73 108,-63.54"/>
<polygon fill="black" stroke="black" points="111.5,-63.62 108,-53.62 104.5,-63.62 111.5,-63.62"/>
</g>
</g>
</svg>